<mxfile host="app.diagrams.net" agent="Mozilla/5.0 (X11; Linux x86_64; rv:138.0) Gecko/20100101 Firefox/138.0" version="27.0.6">
  <diagram id="7LtlbcI9UGWgGEw7jEvB" name="Page-1">
    <mxGraphModel dx="568" dy="739" grid="1" gridSize="1" guides="1" tooltips="1" connect="1" arrows="1" fold="1" page="1" pageScale="1" pageWidth="700" pageHeight="700" math="0" shadow="0">
      <root>
        <mxCell id="0" />
        <mxCell id="1" parent="0" />
        <mxCell id="auPfwLmCJQnRX_lxdGZ9-4" value="" style="endArrow=none;html=1;rounded=0;sketch=0;shadow=0;edgeStyle=orthogonalEdgeStyle;fillColor=#d5e8d4;strokeColor=#ADADAD;" parent="1" source="auPfwLmCJQnRX_lxdGZ9-13" target="auPfwLmCJQnRX_lxdGZ9-16" edge="1">
          <mxGeometry width="50" height="50" relative="1" as="geometry">
            <mxPoint x="364" y="213" as="sourcePoint" />
            <mxPoint x="364" y="173" as="targetPoint" />
          </mxGeometry>
        </mxCell>
        <mxCell id="auPfwLmCJQnRX_lxdGZ9-13" value="pfSense" style="sketch=0;pointerEvents=1;shadow=0;dashed=0;html=1;strokeColor=none;fillColor=#505050;labelPosition=right;verticalLabelPosition=middle;verticalAlign=middle;outlineConnect=0;align=left;shape=mxgraph.office.devices.router;rounded=1;" parent="1" vertex="1">
          <mxGeometry x="336.5" y="133" width="55" height="56" as="geometry" />
        </mxCell>
        <mxCell id="auPfwLmCJQnRX_lxdGZ9-14" value="" style="sketch=0;pointerEvents=1;shadow=0;dashed=0;html=1;strokeColor=none;fillColor=#505050;labelPosition=center;verticalLabelPosition=bottom;verticalAlign=top;outlineConnect=0;align=center;shape=mxgraph.office.devices.switch;rounded=1;" parent="1" vertex="1">
          <mxGeometry x="336.5" y="223" width="55" height="18" as="geometry" />
        </mxCell>
        <mxCell id="auPfwLmCJQnRX_lxdGZ9-15" value="k8s-odroid-hc4-3" style="sketch=0;pointerEvents=1;shadow=0;dashed=0;html=1;strokeColor=none;fillColor=#505050;labelPosition=center;verticalLabelPosition=bottom;verticalAlign=top;outlineConnect=0;align=center;shape=mxgraph.office.servers.server_farm;rounded=1;" parent="1" vertex="1">
          <mxGeometry x="254" y="418.5" width="29.5" height="30" as="geometry" />
        </mxCell>
        <mxCell id="auPfwLmCJQnRX_lxdGZ9-16" value="" style="sketch=0;pointerEvents=1;shadow=0;dashed=0;html=1;strokeColor=none;fillColor=#505050;labelPosition=center;verticalLabelPosition=bottom;outlineConnect=0;verticalAlign=top;align=center;shape=mxgraph.office.clouds.private_cloud;rounded=1;" parent="1" vertex="1">
          <mxGeometry x="317" y="63" width="94" height="55" as="geometry" />
        </mxCell>
        <mxCell id="auPfwLmCJQnRX_lxdGZ9-17" value="&lt;div&gt;limonero&lt;/div&gt;" style="sketch=0;pointerEvents=1;shadow=0;dashed=0;html=1;strokeColor=none;fillColor=#505050;labelPosition=center;verticalLabelPosition=bottom;verticalAlign=top;outlineConnect=0;align=center;shape=mxgraph.office.devices.cd_dvd;rounded=1;fontSize=12;" parent="1" vertex="1">
          <mxGeometry x="94" y="262.5" width="34" height="32" as="geometry" />
        </mxCell>
        <mxCell id="auPfwLmCJQnRX_lxdGZ9-19" value="" style="endArrow=none;html=1;rounded=0;sketch=0;shadow=0;edgeStyle=orthogonalEdgeStyle;strokeWidth=1;fillColor=#d5e8d4;strokeColor=#82b366;" parent="1" source="auPfwLmCJQnRX_lxdGZ9-14" target="auPfwLmCJQnRX_lxdGZ9-13" edge="1">
          <mxGeometry width="50" height="50" relative="1" as="geometry">
            <mxPoint x="354" y="408" as="sourcePoint" />
            <mxPoint x="354" y="373" as="targetPoint" />
            <Array as="points">
              <mxPoint x="364" y="203" />
              <mxPoint x="364" y="203" />
            </Array>
          </mxGeometry>
        </mxCell>
        <mxCell id="auPfwLmCJQnRX_lxdGZ9-22" value="gs724t" style="sketch=0;pointerEvents=1;shadow=0;dashed=0;html=1;strokeColor=none;fillColor=#505050;labelPosition=left;verticalLabelPosition=middle;verticalAlign=middle;align=right;outlineConnect=0;shape=mxgraph.veeam2.physical_switch;rounded=1;" parent="1" vertex="1">
          <mxGeometry x="337.5" y="336" width="53" height="15" as="geometry" />
        </mxCell>
        <mxCell id="auPfwLmCJQnRX_lxdGZ9-23" value="" style="endArrow=none;html=1;rounded=0;sketch=0;shadow=0;edgeStyle=orthogonalEdgeStyle;fillColor=#d5e8d4;strokeColor=#82b366;" parent="1" source="auPfwLmCJQnRX_lxdGZ9-22" target="auPfwLmCJQnRX_lxdGZ9-14" edge="1">
          <mxGeometry width="50" height="50" relative="1" as="geometry">
            <mxPoint x="364" y="331" as="sourcePoint" />
            <mxPoint x="384" y="261" as="targetPoint" />
          </mxGeometry>
        </mxCell>
        <mxCell id="auPfwLmCJQnRX_lxdGZ9-24" value="" style="endArrow=none;html=1;rounded=0;sketch=0;shadow=0;edgeStyle=orthogonalEdgeStyle;fillColor=#d5e8d4;strokeColor=#82b366;" parent="1" source="auPfwLmCJQnRX_lxdGZ9-17" target="auPfwLmCJQnRX_lxdGZ9-14" edge="1">
          <mxGeometry width="50" height="50" relative="1" as="geometry">
            <mxPoint x="444" y="288.52631578947376" as="sourcePoint" />
            <mxPoint x="374" y="251" as="targetPoint" />
            <Array as="points">
              <mxPoint x="344" y="275" />
            </Array>
          </mxGeometry>
        </mxCell>
        <mxCell id="auPfwLmCJQnRX_lxdGZ9-26" value="&lt;div&gt;&lt;br&gt;&lt;/div&gt;" style="edgeLabel;html=1;align=center;verticalAlign=middle;resizable=0;points=[];" parent="auPfwLmCJQnRX_lxdGZ9-24" vertex="1" connectable="0">
          <mxGeometry x="-0.1059" y="-1" relative="1" as="geometry">
            <mxPoint as="offset" />
          </mxGeometry>
        </mxCell>
        <mxCell id="auPfwLmCJQnRX_lxdGZ9-25" value="hall-tv" style="sketch=0;pointerEvents=1;shadow=0;dashed=0;html=1;strokeColor=none;fillColor=#505050;labelPosition=center;verticalLabelPosition=bottom;verticalAlign=top;outlineConnect=0;align=center;shape=mxgraph.office.devices.tv;rounded=1;" parent="1" vertex="1">
          <mxGeometry x="154" y="323" width="59" height="45" as="geometry" />
        </mxCell>
        <mxCell id="auPfwLmCJQnRX_lxdGZ9-27" value="" style="endArrow=none;html=1;rounded=0;sketch=0;shadow=0;edgeStyle=orthogonalEdgeStyle;fillColor=#d5e8d4;strokeColor=#82b366;" parent="1" source="auPfwLmCJQnRX_lxdGZ9-25" target="auPfwLmCJQnRX_lxdGZ9-14" edge="1">
          <mxGeometry width="50" height="50" relative="1" as="geometry">
            <mxPoint x="149" y="288.52631578947376" as="sourcePoint" />
            <mxPoint x="374" y="251" as="targetPoint" />
            <Array as="points">
              <mxPoint x="183" y="301" />
              <mxPoint x="354" y="301" />
            </Array>
          </mxGeometry>
        </mxCell>
        <mxCell id="auPfwLmCJQnRX_lxdGZ9-28" value="&lt;div&gt;&lt;br&gt;&lt;/div&gt;" style="edgeLabel;html=1;align=center;verticalAlign=middle;resizable=0;points=[];" parent="auPfwLmCJQnRX_lxdGZ9-27" vertex="1" connectable="0">
          <mxGeometry x="-0.1059" y="-1" relative="1" as="geometry">
            <mxPoint as="offset" />
          </mxGeometry>
        </mxCell>
        <mxCell id="auPfwLmCJQnRX_lxdGZ9-30" value="gabinete" style="sketch=0;pointerEvents=1;shadow=0;dashed=0;html=1;strokeColor=none;fillColor=#505050;labelPosition=right;verticalLabelPosition=middle;verticalAlign=middle;outlineConnect=0;align=left;shape=mxgraph.office.devices.lcd_monitor;rounded=1;" parent="1" vertex="1">
          <mxGeometry x="544" y="262.5" width="39" height="32" as="geometry" />
        </mxCell>
        <mxCell id="auPfwLmCJQnRX_lxdGZ9-38" value="" style="endArrow=none;html=1;rounded=0;sketch=0;shadow=0;edgeStyle=orthogonalEdgeStyle;fillColor=#d5e8d4;strokeColor=#82b366;" parent="1" source="auPfwLmCJQnRX_lxdGZ9-30" target="auPfwLmCJQnRX_lxdGZ9-14" edge="1">
          <mxGeometry width="50" height="50" relative="1" as="geometry">
            <mxPoint x="404" y="308.5" as="sourcePoint" />
            <mxPoint x="404" y="262.5" as="targetPoint" />
            <Array as="points">
              <mxPoint x="374" y="279" />
            </Array>
          </mxGeometry>
        </mxCell>
        <mxCell id="auPfwLmCJQnRX_lxdGZ9-40" value="z800" style="sketch=0;pointerEvents=1;shadow=0;dashed=0;html=1;strokeColor=none;fillColor=#505050;labelPosition=right;verticalLabelPosition=middle;verticalAlign=middle;outlineConnect=0;align=left;shape=mxgraph.office.devices.lcd_monitor;rounded=1;" parent="1" vertex="1">
          <mxGeometry x="544" y="371" width="39" height="32" as="geometry" />
        </mxCell>
        <mxCell id="auPfwLmCJQnRX_lxdGZ9-41" value="prusik" style="sketch=0;pointerEvents=1;shadow=0;dashed=0;html=1;strokeColor=none;fillColor=#505050;labelPosition=center;verticalLabelPosition=bottom;verticalAlign=top;outlineConnect=0;align=center;shape=mxgraph.office.servers.server_generic;rounded=1;fontSize=12;" parent="1" vertex="1">
          <mxGeometry x="404" y="409.5" width="20" height="39" as="geometry" />
        </mxCell>
        <mxCell id="auPfwLmCJQnRX_lxdGZ9-43" value="grigri" style="sketch=0;pointerEvents=1;shadow=0;dashed=0;html=1;strokeColor=none;fillColor=#505050;labelPosition=center;verticalLabelPosition=bottom;verticalAlign=top;outlineConnect=0;align=center;shape=mxgraph.office.servers.server_generic;rounded=1;fontSize=12;" parent="1" vertex="1">
          <mxGeometry x="464" y="409.5" width="20" height="39" as="geometry" />
        </mxCell>
        <mxCell id="auPfwLmCJQnRX_lxdGZ9-48" value="" style="endArrow=none;html=1;rounded=0;sketch=0;shadow=0;edgeStyle=orthogonalEdgeStyle;fillColor=#fff2cc;strokeColor=#82B366;" parent="1" source="6JEaPico-O-Fo0_nGoF9-1" target="auPfwLmCJQnRX_lxdGZ9-22" edge="1">
          <mxGeometry width="50" height="50" relative="1" as="geometry">
            <mxPoint x="341" y="403" as="sourcePoint" />
            <mxPoint x="326.24" y="371" as="targetPoint" />
            <Array as="points">
              <mxPoint x="341" y="391" />
              <mxPoint x="354" y="391" />
            </Array>
          </mxGeometry>
        </mxCell>
        <mxCell id="auPfwLmCJQnRX_lxdGZ9-49" value="" style="endArrow=none;html=1;rounded=0;sketch=0;shadow=0;edgeStyle=orthogonalEdgeStyle;fillColor=#fff2cc;strokeColor=#d6b656;" parent="1" source="auPfwLmCJQnRX_lxdGZ9-41" target="auPfwLmCJQnRX_lxdGZ9-22" edge="1">
          <mxGeometry width="50" height="50" relative="1" as="geometry">
            <mxPoint x="373.24" y="403" as="sourcePoint" />
            <mxPoint x="373.24" y="357" as="targetPoint" />
            <Array as="points">
              <mxPoint x="414" y="391" />
              <mxPoint x="364" y="391" />
            </Array>
          </mxGeometry>
        </mxCell>
        <mxCell id="auPfwLmCJQnRX_lxdGZ9-50" value="" style="endArrow=none;html=1;rounded=0;sketch=0;shadow=0;edgeStyle=orthogonalEdgeStyle;fillColor=#fff2cc;strokeColor=#d6b656;" parent="1" source="auPfwLmCJQnRX_lxdGZ9-43" target="auPfwLmCJQnRX_lxdGZ9-22" edge="1">
          <mxGeometry width="50" height="50" relative="1" as="geometry">
            <mxPoint x="411" y="397" as="sourcePoint" />
            <mxPoint x="411" y="351" as="targetPoint" />
            <Array as="points">
              <mxPoint x="474" y="381" />
              <mxPoint x="374" y="381" />
            </Array>
          </mxGeometry>
        </mxCell>
        <mxCell id="auPfwLmCJQnRX_lxdGZ9-55" value="" style="endArrow=none;html=1;rounded=0;sketch=0;shadow=0;edgeStyle=orthogonalEdgeStyle;fillColor=#fff2cc;strokeColor=#d6b656;" parent="1" source="auPfwLmCJQnRX_lxdGZ9-15" target="auPfwLmCJQnRX_lxdGZ9-22" edge="1">
          <mxGeometry width="50" height="50" relative="1" as="geometry">
            <mxPoint x="336.52631578947376" y="413" as="sourcePoint" />
            <mxPoint x="364" y="361" as="targetPoint" />
            <Array as="points">
              <mxPoint x="269" y="381" />
              <mxPoint x="344" y="381" />
            </Array>
          </mxGeometry>
        </mxCell>
        <mxCell id="auPfwLmCJQnRX_lxdGZ9-56" value="" style="endArrow=none;html=1;rounded=0;sketch=0;shadow=0;edgeStyle=orthogonalEdgeStyle;fillColor=#d5e8d4;strokeColor=#82b366;" parent="1" source="auPfwLmCJQnRX_lxdGZ9-40" target="auPfwLmCJQnRX_lxdGZ9-22" edge="1">
          <mxGeometry width="50" height="50" relative="1" as="geometry">
            <mxPoint x="454" y="417" as="sourcePoint" />
            <mxPoint x="454" y="371" as="targetPoint" />
            <Array as="points">
              <mxPoint x="524" y="387" />
              <mxPoint x="524" y="341" />
            </Array>
          </mxGeometry>
        </mxCell>
        <mxCell id="auPfwLmCJQnRX_lxdGZ9-60" value="" style="endArrow=none;html=1;rounded=0;sketch=0;shadow=0;edgeStyle=orthogonalEdgeStyle;fillColor=#fff2cc;strokeColor=#9673A6;movable=1;resizable=1;rotatable=1;deletable=1;editable=1;connectable=1;" parent="1" source="auPfwLmCJQnRX_lxdGZ9-14" target="auPfwLmCJQnRX_lxdGZ9-13" edge="1">
          <mxGeometry width="50" height="50" relative="1" as="geometry">
            <mxPoint x="424" y="217" as="sourcePoint" />
            <mxPoint x="424" y="202" as="targetPoint" />
            <Array as="points">
              <mxPoint x="366" y="206" />
              <mxPoint x="366" y="206" />
            </Array>
          </mxGeometry>
        </mxCell>
        <mxCell id="auPfwLmCJQnRX_lxdGZ9-67" value="" style="endArrow=none;html=1;rounded=0;sketch=0;shadow=0;edgeStyle=orthogonalEdgeStyle;fillColor=#dae8fc;strokeColor=#6c8ebf;movable=1;resizable=1;rotatable=1;deletable=1;editable=1;connectable=1;" parent="1" source="auPfwLmCJQnRX_lxdGZ9-14" target="auPfwLmCJQnRX_lxdGZ9-13" edge="1">
          <mxGeometry width="50" height="50" relative="1" as="geometry">
            <mxPoint x="365" y="223" as="sourcePoint" />
            <mxPoint x="365" y="189" as="targetPoint" />
            <Array as="points">
              <mxPoint x="365" y="206" />
              <mxPoint x="365" y="206" />
            </Array>
          </mxGeometry>
        </mxCell>
        <mxCell id="auPfwLmCJQnRX_lxdGZ9-58" value="&lt;div style=&quot;font-size: 8px&quot;&gt;LAN&amp;nbsp;&amp;nbsp;&amp;nbsp;&amp;nbsp;&amp;nbsp;&amp;nbsp;&amp;nbsp;&amp;nbsp; - VLAN 1 &amp;nbsp; - 192.168.76.254/24&lt;br style=&quot;font-size: 8px&quot;&gt;&lt;/div&gt;" style="endArrow=none;html=1;rounded=0;sketch=0;shadow=0;edgeStyle=orthogonalEdgeStyle;labelPosition=right;verticalLabelPosition=middle;align=left;verticalAlign=middle;spacing=14;fillColor=#d5e8d4;strokeColor=#82B366;fontColor=#82B366;fontSize=8;fontFamily=Courier New;" parent="1" edge="1">
          <mxGeometry width="50" height="50" relative="1" as="geometry">
            <mxPoint x="95" y="156" as="sourcePoint" />
            <mxPoint x="115" y="156" as="targetPoint" />
            <Array as="points">
              <mxPoint x="105" y="156" />
              <mxPoint x="105" y="156" />
            </Array>
          </mxGeometry>
        </mxCell>
        <mxCell id="auPfwLmCJQnRX_lxdGZ9-59" value="&lt;font style=&quot;font-size: 8px&quot;&gt;DMZ&lt;/font&gt; &amp;nbsp; &amp;nbsp; &amp;nbsp; &amp;nbsp; - VLAN 101 - 192.168.192.1/24 " style="endArrow=none;html=1;rounded=0;sketch=0;shadow=0;edgeStyle=orthogonalEdgeStyle;labelPosition=right;verticalLabelPosition=middle;align=left;verticalAlign=middle;spacing=14;fontColor=#D6B656;fillColor=#fff2cc;strokeColor=#D6B656;fontSize=8;fontFamily=Courier New;" parent="1" edge="1">
          <mxGeometry width="50" height="50" relative="1" as="geometry">
            <mxPoint x="95" y="180" as="sourcePoint" />
            <mxPoint x="115" y="180" as="targetPoint" />
            <Array as="points">
              <mxPoint x="105" y="180" />
              <mxPoint x="105" y="180" />
            </Array>
          </mxGeometry>
        </mxCell>
        <mxCell id="auPfwLmCJQnRX_lxdGZ9-64" value="&lt;div style=&quot;font-size: 8px&quot;&gt;IoT&amp;nbsp;&amp;nbsp;&amp;nbsp;&amp;nbsp; &amp;nbsp; &amp;nbsp; - VLAN 501 - 192.168.86.254/24&lt;br style=&quot;font-size: 8px&quot;&gt;&lt;/div&gt;" style="endArrow=none;html=1;rounded=0;sketch=0;shadow=0;edgeStyle=orthogonalEdgeStyle;labelPosition=right;verticalLabelPosition=middle;align=left;verticalAlign=middle;spacing=14;fillColor=#dae8fc;strokeColor=#6C8EBF;fontColor=#6C8EBF;fontSize=8;fontFamily=Courier New;" parent="1" edge="1">
          <mxGeometry width="50" height="50" relative="1" as="geometry">
            <mxPoint x="95" y="164" as="sourcePoint" />
            <mxPoint x="115" y="164" as="targetPoint" />
            <Array as="points">
              <mxPoint x="105" y="164" />
              <mxPoint x="105" y="164" />
            </Array>
          </mxGeometry>
        </mxCell>
        <mxCell id="auPfwLmCJQnRX_lxdGZ9-69" value="&lt;div style=&quot;font-size: 8px&quot;&gt;IoT Offline - VLAN 502 - 192.168.96.254/24&lt;br style=&quot;font-size: 8px&quot;&gt;&lt;/div&gt;" style="endArrow=none;html=1;rounded=0;sketch=0;shadow=0;edgeStyle=orthogonalEdgeStyle;labelPosition=right;verticalLabelPosition=middle;align=left;verticalAlign=middle;spacing=14;fillColor=#e1d5e7;strokeColor=#9673A6;fontColor=#9673A6;fontSize=8;fontFamily=Courier New;" parent="1" edge="1">
          <mxGeometry width="50" height="50" relative="1" as="geometry">
            <mxPoint x="95" y="172" as="sourcePoint" />
            <mxPoint x="115" y="172" as="targetPoint" />
            <Array as="points">
              <mxPoint x="105" y="172" />
              <mxPoint x="105" y="172" />
            </Array>
          </mxGeometry>
        </mxCell>
        <mxCell id="auPfwLmCJQnRX_lxdGZ9-71" value="" style="endArrow=none;html=1;rounded=0;sketch=0;shadow=0;edgeStyle=orthogonalEdgeStyle;fillColor=#fff2cc;strokeColor=#d6b656;movable=1;resizable=1;rotatable=1;deletable=1;editable=1;connectable=1;" parent="1" source="auPfwLmCJQnRX_lxdGZ9-14" target="auPfwLmCJQnRX_lxdGZ9-13" edge="1">
          <mxGeometry width="50" height="50" relative="1" as="geometry">
            <mxPoint x="367" y="223" as="sourcePoint" />
            <mxPoint x="367" y="189" as="targetPoint" />
            <Array as="points">
              <mxPoint x="367" y="207" />
              <mxPoint x="367" y="207" />
            </Array>
          </mxGeometry>
        </mxCell>
        <mxCell id="auPfwLmCJQnRX_lxdGZ9-72" value="" style="endArrow=none;html=1;rounded=0;sketch=0;shadow=0;edgeStyle=orthogonalEdgeStyle;fillColor=#dae8fc;strokeColor=#6c8ebf;" parent="1" source="auPfwLmCJQnRX_lxdGZ9-17" target="auPfwLmCJQnRX_lxdGZ9-14" edge="1">
          <mxGeometry width="50" height="50" relative="1" as="geometry">
            <mxPoint x="129" y="279.49411764705883" as="sourcePoint" />
            <mxPoint x="345.01176470588234" y="242" as="targetPoint" />
            <Array as="points">
              <mxPoint x="345" y="276" />
            </Array>
          </mxGeometry>
        </mxCell>
        <mxCell id="auPfwLmCJQnRX_lxdGZ9-73" value="&lt;div&gt;&lt;br&gt;&lt;/div&gt;" style="edgeLabel;html=1;align=center;verticalAlign=middle;resizable=0;points=[];" parent="auPfwLmCJQnRX_lxdGZ9-72" vertex="1" connectable="0">
          <mxGeometry x="-0.1059" y="-1" relative="1" as="geometry">
            <mxPoint as="offset" />
          </mxGeometry>
        </mxCell>
        <mxCell id="auPfwLmCJQnRX_lxdGZ9-74" value="" style="endArrow=none;html=1;rounded=0;sketch=0;shadow=0;edgeStyle=orthogonalEdgeStyle;fillColor=#e1d5e7;strokeColor=#9673a6;" parent="1" source="auPfwLmCJQnRX_lxdGZ9-17" target="auPfwLmCJQnRX_lxdGZ9-14" edge="1">
          <mxGeometry width="50" height="50" relative="1" as="geometry">
            <mxPoint x="130" y="280.49411764705883" as="sourcePoint" />
            <mxPoint x="346.01176470588234" y="243" as="targetPoint" />
            <Array as="points">
              <mxPoint x="346" y="277" />
            </Array>
          </mxGeometry>
        </mxCell>
        <mxCell id="auPfwLmCJQnRX_lxdGZ9-75" value="&lt;div&gt;&lt;br&gt;&lt;/div&gt;" style="edgeLabel;html=1;align=center;verticalAlign=middle;resizable=0;points=[];" parent="auPfwLmCJQnRX_lxdGZ9-74" vertex="1" connectable="0">
          <mxGeometry x="-0.1059" y="-1" relative="1" as="geometry">
            <mxPoint as="offset" />
          </mxGeometry>
        </mxCell>
        <mxCell id="6JEaPico-O-Fo0_nGoF9-1" value="&lt;div&gt;prusik-ipmi&lt;/div&gt;" style="sketch=0;pointerEvents=1;shadow=0;dashed=0;html=1;strokeColor=none;fillColor=#505050;labelPosition=center;verticalLabelPosition=bottom;verticalAlign=top;outlineConnect=0;align=center;shape=mxgraph.office.servers.server_generic;rounded=1;fontSize=12;" parent="1" vertex="1">
          <mxGeometry x="330" y="418.5" width="20" height="39" as="geometry" />
        </mxCell>
      </root>
    </mxGraphModel>
  </diagram>
</mxfile>
